<svg xmlns="http://www.w3.org/2000/svg" viewBox="0 0 996 256" width="996" height="256">
<title>suravidl lockup</title>
<g transform="translate(16 0)"><path d="M 62 8 H 194 A 54 54 0 0 1 248 62 V 194 A 54 54 0 0 1 194 248 H 62 A 54 54 0 0 1 8 194 V 62 A 54 54 0 0 1 62 8 Z" fill="#F2E9D8"/>
<path d="M 90 48 H 166 A 12 12 0 0 1 178 60 V 160 H 216 L 128 224 L 40 160 H 78 V 60 A 12 12 0 0 1 90 48 Z M 104 71 L 104 137 Q 104 148 113 141.6 L 157 110.4 Q 166 104 157 97.6 L 113 66.4 Q 104 60 104 71 Z" fill="#14493C" fill-rule="evenodd"/></g>
<g transform="translate(320 61.9)" fill="#F2E9D8"><g transform="scale(0.17998 -0.17998) translate(0 -723)">
<path d="M270 -12Q213 -12 170.0 0.5Q127 13 98.0 35.0Q69 57 54.5 86.5Q40 116 40 151Q40 156 40.5 160.0Q41 164 41 166H161Q161 164 161.0 162.0Q161 160 161 158Q162 131 178.0 114.5Q194 98 220.0 91.0Q246 84 275 84Q301 84 324.5 89.5Q348 95 363.5 107.5Q379 120 379 140Q379 166 359.0 180.0Q339 194 306.5 203.0Q274 212 237 222Q204 231 171.0 242.0Q138 253 111.5 270.0Q85 287 68.5 314.0Q52 341 52 381Q52 420 69.0 449.0Q86 478 116.0 497.5Q146 517 187.0 527.0Q228 537 276 537Q323 537 361.5 527.0Q400 517 428.5 498.5Q457 480 472.5 453.5Q488 427 488 395Q488 388 487.5 381.0Q487 374 487 373H368V380Q368 399 356.5 412.5Q345 426 323.5 434.0Q302 442 270 442Q246 442 228.0 438.0Q210 434 198.5 427.0Q187 420 181.0 411.0Q175 402 175 391Q175 372 190.0 361.0Q205 350 230.5 342.0Q256 334 286 325Q322 315 360.0 304.5Q398 294 430.5 278.0Q463 262 483.0 233.0Q503 204 503 156Q503 110 485.5 77.5Q468 45 436.5 25.5Q405 6 362.5 -3.0Q320 -12 270 -12Z" transform="translate(0 0)"/>
<path d="M232 -12Q156 -12 108.5 29.5Q61 71 61 171V526H183V193Q183 165 189.5 146.5Q196 128 208.5 116.5Q221 105 239.0 100.0Q257 95 279 95Q312 95 338.5 111.0Q365 127 380.5 155.5Q396 184 396 220V526H518V0H417L407 70H400Q382 46 357.5 27.5Q333 9 301.5 -1.5Q270 -12 232 -12Z" transform="translate(541 0)"/>
<path d="M65 0V526H167L177 443H184Q194 468 208.5 489.5Q223 511 246.0 524.5Q269 538 302 538Q318 538 331.5 535.0Q345 532 352 529V414H315Q284 414 260.0 405.5Q236 397 219.5 379.0Q203 361 195.0 334.0Q187 307 187 271V0Z" transform="translate(1124 0)"/>
<path d="M200 -12Q178 -12 149.5 -6.5Q121 -1 94.5 14.0Q68 29 51.0 58.5Q34 88 34 136Q34 190 58.0 225.5Q82 261 125.5 281.5Q169 302 229.5 310.5Q290 319 362 319V362Q362 385 355.0 403.0Q348 421 329.5 431.5Q311 442 274 442Q237 442 216.0 433.0Q195 424 187.0 411.0Q179 398 179 384V370H61Q60 375 60.0 380.0Q60 385 60 392Q60 437 87.0 470.0Q114 503 162.0 520.5Q210 538 273 538Q345 538 391.5 518.0Q438 498 461.0 461.0Q484 424 484 371V123Q484 104 495.0 96.0Q506 88 519 88H551V4Q541 0 522.0 -5.5Q503 -11 475 -11Q449 -11 428.5 -2.5Q408 6 394.0 22.0Q380 38 374 60H368Q351 39 327.5 22.5Q304 6 272.5 -3.0Q241 -12 200 -12ZM237 88Q267 88 290.5 97.0Q314 106 329.5 122.0Q345 138 353.5 161.0Q362 184 362 211V235Q307 235 260.5 228.0Q214 221 186.5 202.0Q159 183 159 148Q159 130 167.5 116.5Q176 103 193.5 95.5Q211 88 237 88Z" transform="translate(1486 0)"/>
<path d="M200 0 5 526H133L218 289Q224 272 232.5 243.5Q241 215 250.0 184.5Q259 154 265 129H270Q276 152 284.0 182.0Q292 212 300.5 241.0Q309 270 316 289L400 526H524L328 0Z" transform="translate(2042 0)"/>
<path d="M65 607V723H187V607ZM65 0V526H187V0Z" transform="translate(2571 0)"/>
<path d="M248 -12Q184 -12 137.0 17.0Q90 46 64.5 107.0Q39 168 39 264Q39 359 65.0 419.5Q91 480 137.0 509.0Q183 538 241 538Q277 538 307.0 530.0Q337 522 360.0 505.5Q383 489 399 465H405V723H527V0H426L416 70H409Q384 29 341.5 8.5Q299 -12 248 -12ZM286 93Q328 93 354.0 112.0Q380 131 392.5 167.0Q405 203 405 255V268Q405 307 398.0 338.0Q391 369 376.5 390.0Q362 411 339.5 422.0Q317 433 286 433Q241 433 214.5 415.5Q188 398 176.5 361.5Q165 325 165 269V255Q165 200 176.5 164.0Q188 128 214.5 110.5Q241 93 286 93Z" transform="translate(2823 0)"/>
<path d="M65 0V723H187V0Z" transform="translate(3415 0)"/>
</g></g>
</svg>
